<svg width="455" height="454" viewBox="0 0 455 454" fill="none" xmlns="http://www.w3.org/2000/svg">
<path d="M227.446 0.707351L411.666 184.927C434.902 208.164 434.902 245.837 411.666 269.073L265.983 414.756C244.7 436.039 210.192 436.039 188.909 414.756L43.226 269.073C19.9898 245.837 19.9898 208.164 43.226 184.927L227.446 0.707351Z" fill="white" stroke="#FF9F00"/>
<mask id="mask0_88_2424" style="mask-type:alpha" maskUnits="userSpaceOnUse" x="26" y="0" width="404" height="431">
<path d="M227.833 0.83374L411.509 184.51C434.941 207.941 434.941 245.931 411.509 269.362L266.21 414.662C244.731 436.141 209.907 436.141 188.428 414.662L43.6433 269.877C20.2119 246.445 20.2119 208.455 43.6433 185.024L227.833 0.83374Z" fill="white"/>
</mask>
<g mask="url(#mask0_88_2424)">
<rect x="24" y="133" width="407" height="188" fill="#FF9F00"/>
</g>
<path d="M227.462 23.8443L388.561 184.943C411.798 208.18 411.798 245.853 388.561 269.089L266 391.651C244.716 412.935 210.209 412.935 188.925 391.651L66.3632 269.089C43.127 245.853 43.1269 208.18 66.3631 184.943L227.462 23.8443Z" fill="white" stroke="#E2BC7D"/>
</svg>
