<svg width="455" height="454" viewBox="0 0 455 454" fill="none" xmlns="http://www.w3.org/2000/svg">
<path d="M227.446 0.707351L411.666 184.927C434.902 208.164 434.902 245.837 411.666 269.073L280.126 400.614C251.031 429.708 203.861 429.708 174.767 400.614L43.226 269.073C19.9898 245.837 19.9898 208.164 43.226 184.927L227.446 0.707351Z" stroke="#69B80D"/>
<mask id="mask0_88_2430" style="mask-type:alpha" maskUnits="userSpaceOnUse" x="25" y="0" width="405" height="429">
<path d="M227.119 0.119141L411.574 184.574C435.005 208.005 435.005 245.995 411.574 269.427L269.417 411.583C246.376 434.624 209.02 434.624 185.979 411.583L43.2432 268.848C19.8117 245.416 19.8117 207.426 43.2432 183.995L227.119 0.119141Z" fill="#D9D9D9"/>
</mask>
<g mask="url(#mask0_88_2430)">
<rect x="24" y="132" width="407" height="189" fill="#69B80D"/>
</g>
<path d="M227.462 23.8443L388.562 184.943C411.798 208.18 411.798 245.853 388.562 269.089L269.535 388.115C246.299 411.352 208.626 411.352 185.39 388.115L66.3633 269.089C43.1271 245.853 43.1271 208.18 66.3632 184.943L227.462 23.8443Z" fill="white" stroke="#E2BC7D"/>
</svg>
