<svg width="455" height="454" viewBox="0 0 455 454" fill="none" xmlns="http://www.w3.org/2000/svg">
<path d="M227.446 0.707351L411.666 184.927C434.902 208.164 434.902 245.837 411.666 269.073L280.125 400.614C251.031 429.708 203.86 429.708 174.766 400.614L43.2258 269.073C19.9896 245.837 19.9896 208.164 43.2258 184.927L227.446 0.707351Z" stroke="#AD5C22"/>
<mask id="mask0_88_2436" style="mask-type:alpha" maskUnits="userSpaceOnUse" x="25" y="0" width="405" height="432">
<path d="M227.739 0.876221L411.505 184.643C434.936 208.074 434.936 246.064 411.505 269.496L266.004 414.996C244.525 436.475 209.701 436.475 188.222 414.996L43.3469 270.121C19.9154 246.689 19.9154 208.699 43.3468 185.268L227.739 0.876221Z" fill="#D9D9D9"/>
</mask>
<g mask="url(#mask0_88_2436)">
<rect x="24.0002" y="133" width="407" height="188" fill="#AD5C22"/>
</g>
<path d="M227.462 23.8443L388.561 184.943C411.797 208.18 411.798 245.853 388.561 269.089L269.535 388.115C246.299 411.352 208.625 411.352 185.389 388.115L66.363 269.089C43.1268 245.853 43.1268 208.18 66.363 184.943L227.462 23.8443Z" fill="white" stroke="#E2BC7D"/>
</svg>
