<svg width="42" height="42" viewBox="0 0 42 42" fill="none" xmlns="http://www.w3.org/2000/svg">
<path d="M23.8276 17.2237L16.9891 16.3053C16.6689 16.2566 16.3806 16.0841 16.1864 15.825C15.9921 15.5658 15.9074 15.2407 15.9505 14.9197C15.9937 14.5987 16.1611 14.3075 16.4168 14.1088C16.6726 13.9101 16.9961 13.8198 17.3178 13.8573L27.1116 15.1725C27.2725 15.1937 27.4277 15.2464 27.5681 15.3278C27.7086 15.4091 27.8316 15.5174 27.9301 15.6464C28.0286 15.7754 28.1006 15.9226 28.1419 16.0796C28.1833 16.2365 28.1933 16.4001 28.1712 16.5609L26.8559 26.3547C26.8031 26.6711 26.6291 26.9545 26.371 27.1449C26.1129 27.3354 25.7908 27.418 25.4728 27.3752C25.1549 27.3323 24.8661 27.1675 24.6675 26.9156C24.469 26.6636 24.3762 26.3443 24.4089 26.0252L25.3273 19.1867L15.915 26.3702C15.6546 26.569 15.3259 26.6561 15.0012 26.6125C14.6765 26.5689 14.3825 26.3981 14.1837 26.1377C13.985 25.8773 13.8978 25.5486 13.9414 25.2239C13.985 24.8993 14.1558 24.6052 14.4162 24.4065L23.8276 17.2237Z" fill="white"/>
</svg>
