<svg width="50" height="51" viewBox="0 0 50 51" fill="none" xmlns="http://www.w3.org/2000/svg">
<mask id="mask0_88_2445" style="mask-type:alpha" maskUnits="userSpaceOnUse" x="0" y="0" width="51" height="51">
<rect x="0.84375" y="0.87207" width="49.1662" height="49.1662" fill="#D9D9D9"/>
</mask>
<g mask="url(#mask0_88_2445)">
<path d="M4.94116 43.8925V39.7953H23.3785V16.9023C22.4908 16.595 21.7225 16.117 21.0738 15.4683C20.4251 14.8196 19.9471 14.0513 19.6398 13.1636H13.1355L19.2813 27.5038C19.2813 29.2109 18.5814 30.662 17.1815 31.857C15.7816 33.052 14.0915 33.6495 12.1112 33.6495C10.1309 33.6495 8.44084 33.052 7.04097 31.857C5.6411 30.662 4.94116 29.2109 4.94116 27.5038L11.0869 13.1636H6.98975V9.06642H19.6398C20.0495 7.87141 20.7836 6.88979 21.842 6.12157C22.9005 5.35335 24.0955 4.96924 25.4271 4.96924C26.7587 4.96924 27.9537 5.35335 29.0121 6.12157C30.0706 6.88979 30.8046 7.87141 31.2144 9.06642H43.8644V13.1636H39.7672L45.913 27.5038C45.913 29.2109 45.2131 30.662 43.8132 31.857C42.4133 33.052 40.7232 33.6495 38.7429 33.6495C36.7626 33.6495 35.0725 33.052 33.6727 31.857C32.2728 30.662 31.5729 29.2109 31.5729 27.5038L37.7186 13.1636H31.2144C30.9071 14.0513 30.4291 14.8196 29.7803 15.4683C29.1316 16.117 28.3634 16.595 27.4757 16.9023V39.7953H45.913V43.8925H4.94116ZM34.9018 27.5038H42.584L38.7429 18.5924L34.9018 27.5038ZM8.27012 27.5038H15.9523L12.1112 18.5924L8.27012 27.5038ZM25.4271 13.1636C26.0075 13.1636 26.4941 12.9673 26.8867 12.5746C27.2794 12.182 27.4757 11.6954 27.4757 11.115C27.4757 10.5346 27.2794 10.048 26.8867 9.65539C26.4941 9.26275 26.0075 9.06642 25.4271 9.06642C24.8467 9.06642 24.3601 9.26275 23.9675 9.65539C23.5748 10.048 23.3785 10.5346 23.3785 11.115C23.3785 11.6954 23.5748 12.182 23.9675 12.5746C24.3601 12.9673 24.8467 13.1636 25.4271 13.1636Z" fill="#AD5C22"/>
</g>
</svg>
