<svg width="14" height="14" viewBox="0 0 14 14" fill="none" xmlns="http://www.w3.org/2000/svg">
<path d="M12.4792 1.125H10.8855V0.59375C10.8855 0.452854 10.8295 0.317728 10.7299 0.2181C10.6303 0.118471 10.4951 0.0625 10.3542 0.0625C10.2134 0.0625 10.0782 0.118471 9.9786 0.2181C9.87897 0.317728 9.823 0.452854 9.823 0.59375V1.125H4.5105V0.59375C4.5105 0.452854 4.45453 0.317728 4.3549 0.2181C4.25527 0.118471 4.12014 0.0625 3.97925 0.0625C3.83835 0.0625 3.70323 0.118471 3.6036 0.2181C3.50397 0.317728 3.448 0.452854 3.448 0.59375V1.125H1.85425C1.57246 1.125 1.3022 1.23694 1.10295 1.4362C0.90369 1.63546 0.791748 1.90571 0.791748 2.1875V12.8125C0.791748 13.0943 0.90369 13.3645 1.10295 13.5638C1.3022 13.7631 1.57246 13.875 1.85425 13.875H12.4792C12.761 13.875 13.0313 13.7631 13.2305 13.5638C13.4298 13.3645 13.5417 13.0943 13.5417 12.8125V2.1875C13.5417 1.90571 13.4298 1.63546 13.2305 1.4362C13.0313 1.23694 12.761 1.125 12.4792 1.125ZM12.4792 4.3125H1.85425V2.1875H3.448V2.71875C3.448 2.85965 3.50397 2.99477 3.6036 3.0944C3.70323 3.19403 3.83835 3.25 3.97925 3.25C4.12014 3.25 4.25527 3.19403 4.3549 3.0944C4.45453 2.99477 4.5105 2.85965 4.5105 2.71875V2.1875H9.823V2.71875C9.823 2.85965 9.87897 2.99477 9.9786 3.0944C10.0782 3.19403 10.2134 3.25 10.3542 3.25C10.4951 3.25 10.6303 3.19403 10.7299 3.0944C10.8295 2.99477 10.8855 2.85965 10.8855 2.71875V2.1875H12.4792V4.3125Z" fill="#282A3A"/>
</svg>
