<svg width="53" height="53" viewBox="0 0 53 53" fill="none" xmlns="http://www.w3.org/2000/svg">
<mask id="mask0_88_2442" style="mask-type:alpha" maskUnits="userSpaceOnUse" x="0" y="0" width="53" height="53">
<rect x="0.700195" y="0.426025" width="52.0583" height="52.0583" fill="#D9D9D9"/>
</mask>
<g mask="url(#mask0_88_2442)">
<path d="M13.7149 50.3154H7.20758C6.01458 50.3154 4.99329 49.8906 4.14373 49.041C3.29417 48.1915 2.86938 47.1702 2.86938 45.9772V39.4699H7.20758V45.9772H13.7149V50.3154ZM39.744 50.3154V45.9772H46.2513V39.4699H50.5895V45.9772C50.5895 47.1702 50.1648 48.1915 49.3152 49.041C48.4656 49.8906 47.4443 50.3154 46.2513 50.3154H39.744ZM26.7295 40.5544C22.3913 40.5544 18.4598 39.271 14.935 36.7043C11.4102 34.1375 8.8344 30.7212 7.20758 26.4553C8.8344 22.1894 11.4102 18.7731 14.935 16.2063C18.4598 13.6395 22.3913 12.3562 26.7295 12.3562C31.0677 12.3562 34.9991 13.6395 38.5239 16.2063C42.0487 18.7731 44.6245 22.1894 46.2513 26.4553C44.6245 30.7212 42.0487 34.1375 38.5239 36.7043C34.9991 39.271 31.0677 40.5544 26.7295 40.5544ZM26.7295 36.2162C29.9108 36.2162 32.821 35.3486 35.4601 33.6133C38.0991 31.878 40.1236 29.492 41.5336 26.4553C40.1236 23.4186 38.0991 21.0325 35.4601 19.2973C32.821 17.562 29.9108 16.6944 26.7295 16.6944C23.5481 16.6944 20.6379 17.562 17.9988 19.2973C15.3598 21.0325 13.3353 23.4186 11.9254 26.4553C13.3353 29.492 15.3598 31.878 17.9988 33.6133C20.6379 35.3486 23.5481 36.2162 26.7295 36.2162ZM26.7295 34.0471C28.8263 34.0471 30.6158 33.306 32.098 31.8238C33.5802 30.3416 34.3213 28.5521 34.3213 26.4553C34.3213 24.3585 33.5802 22.569 32.098 21.0868C30.6158 19.6046 28.8263 18.8634 26.7295 18.8634C24.6327 18.8634 22.8432 19.6046 21.3609 21.0868C19.8787 22.569 19.1376 24.3585 19.1376 26.4553C19.1376 28.5521 19.8787 30.3416 21.3609 31.8238C22.8432 33.306 24.6327 34.0471 26.7295 34.0471ZM26.7295 29.7089C25.8257 29.7089 25.0574 29.3926 24.4248 28.76C23.7921 28.1273 23.4758 27.3591 23.4758 26.4553C23.4758 25.5515 23.7921 24.7833 24.4248 24.1506C25.0574 23.518 25.8257 23.2016 26.7295 23.2016C27.6333 23.2016 28.4015 23.518 29.0341 24.1506C29.6668 24.7833 29.9831 25.5515 29.9831 26.4553C29.9831 27.3591 29.6668 28.1273 29.0341 28.76C28.4015 29.3926 27.6333 29.7089 26.7295 29.7089ZM2.86938 13.4407V6.93341C2.86938 5.74041 3.29417 4.71912 4.14373 3.86956C4.99329 3.02 6.01458 2.59521 7.20758 2.59521H13.7149V6.93341H7.20758V13.4407H2.86938ZM46.2513 13.4407V6.93341H39.744V2.59521H46.2513C47.4443 2.59521 48.4656 3.02 49.3152 3.86956C50.1648 4.71912 50.5895 5.74041 50.5895 6.93341V13.4407H46.2513Z" fill="#69B80D"/>
</g>
</svg>
