<svg width="53" height="53" viewBox="0 0 53 53" fill="none" xmlns="http://www.w3.org/2000/svg">
<mask id="mask0_88_2448" style="mask-type:alpha" maskUnits="userSpaceOnUse" x="0" y="0" width="53" height="53">
<rect x="0.00317383" y="0.426025" width="52.0583" height="52.0583" fill="#D9D9D9"/>
</mask>
<g mask="url(#mask0_88_2448)">
<path d="M20.6095 12.3561C19.4165 12.3561 18.3953 11.9313 17.5457 11.0817C16.6961 10.2322 16.2713 9.21089 16.2713 8.01788C16.2713 6.82488 16.6961 5.8036 17.5457 4.95403C18.3953 4.10447 19.4165 3.67969 20.6095 3.67969C21.8025 3.67969 22.8238 4.10447 23.6734 4.95403C24.523 5.8036 24.9477 6.82488 24.9477 8.01788C24.9477 9.21089 24.523 10.2322 23.6734 11.0817C22.8238 11.9313 21.8025 12.3561 20.6095 12.3561ZM6.51041 50.3153L12.4754 19.731L8.6795 21.3578V28.6243H4.34131V18.4296L15.7291 13.766C16.7052 13.3683 17.6993 13.3231 18.7116 13.6304C19.7238 13.9377 20.5011 14.5613 21.0434 15.5013L23.104 18.9718C24.0801 20.5625 25.3906 21.8459 27.0355 22.822C28.6804 23.7981 30.5151 24.2861 32.5396 24.2861V28.6243C30.1536 28.6243 27.9393 28.1182 25.8967 27.1059C23.8542 26.0937 22.1279 24.7199 20.718 22.9847L19.4165 29.492L23.8632 33.9386V50.3153H19.525V37.3007L14.8614 32.9625L11.0655 50.3153H6.51041ZM36.3355 50.3153V19.9479H28.2014V4.76424H47.7233V19.9479H39.5891V50.3153H36.3355ZM39.1011 17.7246L44.4696 12.3561L39.1011 6.98756L36.7693 9.31934L38.1792 10.7293H31.455V13.9829H38.1792L36.7693 15.3928L39.1011 17.7246Z" fill="#FF9F00"/>
</g>
</svg>
