<svg width="30" height="30" viewBox="0 0 30 30" fill="none" xmlns="http://www.w3.org/2000/svg">
<mask id="mask0_88_2466" style="mask-type:alpha" maskUnits="userSpaceOnUse" x="0" y="0" width="30" height="30">
<rect width="30" height="30" fill="#D9D9D9"/>
</mask>
<g mask="url(#mask0_88_2466)">
<path d="M6.875 21.875C4.95833 21.875 3.33333 21.2083 2 19.875C0.666667 18.5417 0 16.9167 0 15C0 13.0833 0.666667 11.4583 2 10.125C3.33333 8.79167 4.95833 8.125 6.875 8.125C7.64583 8.125 8.38542 8.26042 9.09375 8.53125C9.80208 8.80208 10.4375 9.1875 11 9.6875L13.125 11.625L11.25 13.3125L9.3125 11.5625C8.97917 11.2708 8.60417 11.0417 8.1875 10.875C7.77083 10.7083 7.33333 10.625 6.875 10.625C5.66667 10.625 4.63542 11.0521 3.78125 11.9062C2.92708 12.7604 2.5 13.7917 2.5 15C2.5 16.2083 2.92708 17.2396 3.78125 18.0938C4.63542 18.9479 5.66667 19.375 6.875 19.375C7.33333 19.375 7.77083 19.2917 8.1875 19.125C8.60417 18.9583 8.97917 18.7292 9.3125 18.4375L19 9.6875C19.5625 9.1875 20.1979 8.80208 20.9062 8.53125C21.6146 8.26042 22.3542 8.125 23.125 8.125C25.0417 8.125 26.6667 8.79167 28 10.125C29.3333 11.4583 30 13.0833 30 15C30 16.9167 29.3333 18.5417 28 19.875C26.6667 21.2083 25.0417 21.875 23.125 21.875C22.3542 21.875 21.6146 21.7396 20.9062 21.4688C20.1979 21.1979 19.5625 20.8125 19 20.3125L16.875 18.375L18.75 16.6875L20.6875 18.4375C21.0208 18.7292 21.3958 18.9583 21.8125 19.125C22.2292 19.2917 22.6667 19.375 23.125 19.375C24.3333 19.375 25.3646 18.9479 26.2188 18.0938C27.0729 17.2396 27.5 16.2083 27.5 15C27.5 13.7917 27.0729 12.7604 26.2188 11.9062C25.3646 11.0521 24.3333 10.625 23.125 10.625C22.6667 10.625 22.2292 10.7083 21.8125 10.875C21.3958 11.0417 21.0208 11.2708 20.6875 11.5625L11 20.3125C10.4375 20.8125 9.80208 21.1979 9.09375 21.4688C8.38542 21.7396 7.64583 21.875 6.875 21.875Z" fill="#1C1B1F"/>
</g>
</svg>
