<svg width="14" height="14" viewBox="0 0 14 14" fill="none" xmlns="http://www.w3.org/2000/svg">
<path d="M4.10089 0.0489563C3.35609 0.0840963 2.84747 0.202956 2.40283 0.377676C1.94265 0.557016 1.55261 0.797676 1.16453 1.18716C0.776451 1.57664 0.537471 1.96696 0.359391 2.42784C0.187051 2.87346 0.0702913 3.3825 0.0373914 4.12772C0.00449135 4.87294 -0.00278865 5.11248 0.00085135 7.0134C0.00449135 8.91432 0.0128914 9.1526 0.0490113 9.89936C0.0845713 10.644 0.203011 11.1525 0.377731 11.5973C0.557351 12.0575 0.797731 12.4474 1.18735 12.8356C1.57697 13.2238 1.96701 13.4622 2.42901 13.6406C2.87421 13.8126 3.38339 13.93 4.12847 13.9626C4.87355 13.9952 5.11337 14.0028 7.01373 13.9991C8.91409 13.9955 9.15335 13.9871 9.89997 13.9517C10.6466 13.9162 11.1524 13.797 11.5973 13.6231C12.0575 13.443 12.4477 13.2031 12.8356 12.8133C13.2236 12.4236 13.4624 12.033 13.6404 11.5718C13.8128 11.1266 13.93 10.6174 13.9624 9.8729C13.995 9.12572 14.0027 8.88716 13.999 6.98652C13.9954 5.08588 13.9869 4.8476 13.9514 4.10112C13.916 3.35464 13.7974 2.8477 13.6229 2.40264C13.443 1.94246 13.2029 1.55284 12.8134 1.16434C12.4239 0.775836 12.033 0.537136 11.572 0.359616C11.1265 0.187276 10.6176 0.0698163 9.87253 0.0376163C9.12745 0.00541633 8.88763 -0.00284367 6.98657 0.000796328C5.08551 0.00443633 4.84751 0.0125563 4.10089 0.0489563ZM4.18265 12.7033C3.50015 12.6736 3.12957 12.5602 2.88261 12.4653C2.55557 12.3393 2.32261 12.187 2.07649 11.9432C1.83037 11.6995 1.67917 11.4657 1.55149 11.1393C1.45559 10.8924 1.34009 10.5222 1.30817 9.83972C1.27345 9.10206 1.26617 8.88058 1.26211 7.01172C1.25805 5.14286 1.26519 4.92166 1.29753 4.18372C1.32665 3.50178 1.44075 3.13078 1.53553 2.88396C1.66153 2.5565 1.81329 2.32396 2.05759 2.07798C2.30189 1.832 2.53499 1.68052 2.86161 1.55284C3.10829 1.45652 3.47845 1.342 4.16067 1.30952C4.89889 1.27452 5.12009 1.26752 6.98867 1.26346C8.85725 1.2594 9.07901 1.2664 9.81751 1.29888C10.4995 1.32856 10.8706 1.44154 11.1171 1.53688C11.4443 1.66288 11.6771 1.81422 11.9231 2.05894C12.1691 2.30366 12.3207 2.53592 12.4484 2.86324C12.5449 3.10922 12.6594 3.47924 12.6916 4.16188C12.7267 4.9001 12.7347 5.12144 12.7381 6.98988C12.7414 8.85832 12.7348 9.08022 12.7025 9.81788C12.6727 10.5004 12.5596 10.8711 12.4645 11.1183C12.3385 11.4452 12.1866 11.6783 11.9422 11.9242C11.6977 12.17 11.4649 12.3215 11.1381 12.4492C10.8917 12.5454 10.5212 12.6602 9.83949 12.6926C9.10127 12.7274 8.88007 12.7346 7.01079 12.7387C5.14151 12.7428 4.92101 12.7352 4.18279 12.7033M9.88919 3.25874C9.88947 3.42488 9.93901 3.58722 10.0316 3.72521C10.1241 3.8632 10.2555 3.97064 10.4091 4.03396C10.5627 4.09727 10.7316 4.11361 10.8945 4.0809C11.0574 4.04819 11.207 3.96791 11.3242 3.85021C11.4415 3.73251 11.5212 3.58268 11.5534 3.41967C11.5855 3.25665 11.5685 3.08777 11.5046 2.93439C11.4408 2.78102 11.3328 2.65002 11.1945 2.55799C11.0562 2.46595 10.8937 2.417 10.7275 2.41734C10.5048 2.41778 10.2913 2.50667 10.1341 2.66446C9.97692 2.82224 9.88882 3.036 9.88919 3.25874ZM3.40579 7.00696C3.40971 8.99216 5.02195 10.5978 7.00673 10.594C8.99151 10.5903 10.5983 8.97816 10.5945 6.99296C10.5907 5.00776 8.97807 3.40168 6.99301 3.4056C5.00795 3.40952 3.40201 5.02204 3.40579 7.00696ZM4.66663 7.00444C4.66572 6.54294 4.80168 6.09153 5.05731 5.70731C5.31295 5.32308 5.67678 5.02328 6.1028 4.84583C6.52881 4.66838 6.99789 4.62124 7.4507 4.71038C7.9035 4.79952 8.31971 5.02093 8.64668 5.34661C8.97366 5.67229 9.19672 6.08762 9.28765 6.54007C9.37858 6.99252 9.3333 7.46178 9.15753 7.8885C8.98177 8.31521 8.68342 8.68023 8.3002 8.93738C7.91699 9.19454 7.46613 9.33228 7.00463 9.3332C6.6982 9.33384 6.39464 9.27411 6.11129 9.15742C5.82794 9.04073 5.57036 8.86937 5.35325 8.65312C5.13614 8.43686 4.96375 8.17996 4.84594 7.89708C4.72813 7.61419 4.6672 7.31087 4.66663 7.00444Z" fill="white"/>
</svg>
