<svg width="30" height="30" viewBox="0 0 30 30" fill="none" xmlns="http://www.w3.org/2000/svg">
<mask id="mask0_88_2472" style="mask-type:alpha" maskUnits="userSpaceOnUse" x="0" y="0" width="30" height="30">
<rect width="30" height="30" fill="#D9D9D9"/>
</mask>
<g mask="url(#mask0_88_2472)">
<path d="M2.5 26.25V5.9375L8.75 1.25L15 5.9375V8.75H27.5V26.25H2.5ZM5 23.75H7.5V21.25H5V23.75ZM5 18.75H7.5V16.25H5V18.75ZM5 13.75H7.5V11.25H5V13.75ZM5 8.75H7.5V6.25H5V8.75ZM10 8.75H12.5V6.25H10V8.75ZM10 23.75H25V11.25H10V23.75ZM17.5 16.25V13.75H22.5V16.25H17.5ZM17.5 21.25V18.75H22.5V21.25H17.5ZM12.5 16.25V13.75H15V16.25H12.5ZM12.5 21.25V18.75H15V21.25H12.5Z" fill="white"/>
</g>
</svg>
