<svg width="15" height="14" viewBox="0 0 15 14" fill="none" xmlns="http://www.w3.org/2000/svg">
<path d="M14.6685 13.6092C14.6219 13.69 14.5548 13.7571 14.474 13.8037C14.3932 13.8503 14.3016 13.8749 14.2083 13.8749H1.45832C1.36511 13.8748 1.27357 13.8501 1.19288 13.8035C1.1122 13.7568 1.04521 13.6897 0.99865 13.609C0.952088 13.5282 0.927588 13.4367 0.927612 13.3435C0.927636 13.2503 0.952183 13.1587 0.998786 13.078C2.01015 11.3295 3.56871 10.0758 5.38758 9.48142C4.48788 8.94582 3.78888 8.1297 3.3979 7.15839C3.00693 6.18708 2.94561 5.11428 3.22336 4.10474C3.5011 3.0952 4.10256 2.20475 4.93537 1.57012C5.76817 0.9355 6.78627 0.591797 7.83332 0.591797C8.88037 0.591797 9.89847 0.9355 10.7313 1.57012C11.5641 2.20475 12.1655 3.0952 12.4433 4.10474C12.721 5.11428 12.6597 6.18708 12.2687 7.15839C11.8778 8.1297 11.1788 8.94582 10.2791 9.48142C12.0979 10.0758 13.6565 11.3295 14.6678 13.078C14.7146 13.1587 14.7392 13.2503 14.7394 13.3435C14.7395 13.4368 14.715 13.5284 14.6685 13.6092Z" fill="#282A3A"/>
</svg>
