<svg width="14" height="15" viewBox="0 0 14 15" fill="none" xmlns="http://www.w3.org/2000/svg">
<path fill-rule="evenodd" clip-rule="evenodd" d="M11.9601 2.17972C10.6442 0.774805 8.89412 0.000712792 7.0294 0C3.18698 0 0.059829 3.33409 0.058492 7.43228C0.0578235 8.74238 0.379029 10.0211 0.989018 11.1481L0 15L3.69536 13.9664C4.71345 14.5588 5.85989 14.8706 7.02641 14.871H7.0294C10.8712 14.871 13.9987 11.5365 14 7.43834C14.0007 5.45217 13.2764 3.58499 11.9601 2.18007V2.17972ZM7.0294 13.6158H7.02707C5.98757 13.6154 4.96782 13.3174 4.07808 12.7547L3.8665 12.6207L1.67354 13.2341L2.2588 10.9542L2.12109 10.7204C1.54118 9.73676 1.23468 8.59982 1.23535 7.43266C1.23669 4.02657 3.83574 1.25523 7.03177 1.25523C8.57928 1.25594 10.0339 1.89924 11.1279 3.06715C12.2218 4.2347 12.8238 5.78718 12.8231 7.43763C12.8218 10.8441 10.2228 13.6154 7.0294 13.6154V13.6158ZM10.2074 8.98903C10.0332 8.89602 9.17692 8.44693 9.01713 8.38494C8.85737 8.32291 8.74141 8.29193 8.6254 8.47795C8.50943 8.66401 8.17553 9.08241 8.07392 9.20607C7.9723 9.33009 7.87068 9.34543 7.69654 9.25238C7.52243 9.15937 6.96123 8.96336 6.29576 8.33074C5.77803 7.8382 5.42838 7.23022 5.32681 7.04416C5.22519 6.85814 5.31611 6.75762 5.40299 6.66532C5.48119 6.58193 5.57713 6.44828 5.66436 6.33993C5.75163 6.23158 5.78037 6.15391 5.83851 6.03021C5.89668 5.90619 5.86759 5.79787 5.82416 5.70482C5.78068 5.61181 5.43243 4.69764 5.28702 4.32593C5.14562 3.96384 5.00193 4.01302 4.89529 4.00697C4.79368 4.00162 4.67771 4.00055 4.56139 4.00055C4.44508 4.00055 4.25654 4.04688 4.09679 4.23292C3.93703 4.41894 3.48713 4.86836 3.48713 5.78216C3.48713 6.69596 4.11118 7.57949 4.19841 7.70352C4.28563 7.82755 5.42671 9.70325 7.17379 10.508C7.58928 10.6994 7.91381 10.8138 8.16682 10.8993C8.58398 11.0408 8.96366 11.0209 9.2638 10.9731C9.5984 10.9196 10.2943 10.5237 10.4393 10.0899C10.5844 9.65619 10.5844 9.28411 10.541 9.20677C10.4975 9.12943 10.3812 9.08274 10.2071 8.98973L10.2074 8.98903Z" fill="white"/>
</svg>
