<svg width="16" height="13" viewBox="0 0 16 13" fill="none" xmlns="http://www.w3.org/2000/svg">
<path d="M6.36364 8.80366V3.57785L10.5455 6.19088L6.36364 8.80366ZM15.6656 1.93353C15.4816 1.17248 14.9395 0.573195 14.2511 0.369803C13.0034 0.000164986 8 0.000164986 8 0.000164986C8 0.000164986 2.99666 0.000164986 1.7489 0.369803C1.06051 0.573195 0.518324 1.17248 0.334339 1.93353C0 3.31286 0 6.19076 0 6.19076C0 6.19076 0 9.06861 0.334339 10.448C0.518324 11.209 1.06051 11.8083 1.7489 12.0118C2.99666 12.3813 8 12.3813 8 12.3813C8 12.3813 13.0034 12.3813 14.2511 12.0118C14.9395 11.8083 15.4816 11.209 15.6656 10.448C16 9.06861 16 6.19076 16 6.19076C16 6.19076 16 3.31286 15.6656 1.93353Z" fill="white"/>
</svg>
